<svg xmlns="http://www.w3.org/2000/svg" enable-background="new 0 0 511.998 511.998" viewBox="0 0 511.998 511.998">
    <path fill="#E04B4B" d="M488.654 439.649l-53.61-13.876c-97.369-25.201-170.401 2.365-179.559 3.643v30c8.818-1.23 82.594-28.74 179.559-3.643l53.61 13.876c7.761 2.008 15.329-3.851 15.329-11.867v-30c0 8.016-7.567 13.875-15.329 11.867z"/>
    <path fill="#EAE4D6" d="M488.654 412.837l-53.61-13.875c-97.369-25.201-170.401 2.366-179.559 3.644v29.811c8.818-1.23 82.594-28.74 179.559-3.643l53.61 13.876c7.761 2.008 15.329-3.851 15.329-11.867v-29.811c0 8.016-7.567 13.875-15.329 11.865z"/>
    <path fill="#E0D5BD" d="M488.654 385.837c-32.98-5.619-109.498-41.712-217.565-14.204l-15.605 3.972v30c8.83-1.232 82.594-28.74 179.559-3.644l53.61 13.875c7.761 2.009 15.329-3.85 15.329-11.866v-30c.001 8.018-7.566 13.877-15.328 11.867z"/>
    <path fill="#ED5A5A" d="M75.925 425.773l-53.61 13.876c-7.761 2.008-15.329-3.851-15.329-11.867v30c0 8.016 7.568 13.875 15.329 11.867l53.61-13.876c97.369-25.201 170.401 2.365 179.559 3.643v-30c-8.818-1.23-82.593-28.74-179.559-3.643z"/>
    <path fill="#E04B4B" d="M87.499 423.005c-3.82.844-7.676 1.759-11.573 2.768l-53.61 13.876c-7.761 2.008-15.329-3.851-15.329-11.867v30c0 8.016 7.568 13.875 15.329 11.867l53.61-13.876c3.899-1.009 7.755-1.925 11.573-2.77v-29.998z"/>
    <path fill="#F9F6ED" d="M75.925 398.962l-53.61 13.875c-7.761 2.009-15.329-3.85-15.329-11.866v29.811c0 8.016 7.568 13.875 15.329 11.867l53.61-13.876c97.369-25.201 170.401 2.365 179.559 3.643v-29.811c-8.829-1.232-82.593-28.74-179.559-3.643z"/>
    <path fill="#EAE4D6" d="M87.499 396.194c-3.82.844-7.676 1.759-11.573 2.768l-53.61 13.875c-7.761 2.009-15.329-3.85-15.329-11.866v29.811c0 8.016 7.568 13.875 15.329 11.867l53.61-13.876c3.899-1.009 7.755-1.925 11.573-2.77v-29.809zM494.756 69.144l-68.453-17.717c-90.371-23.39-157.405 3.903-170.819 5.906h-6.464v321.273h6.464c8.83-1.232 82.593-28.74 179.56-3.644l53.61 13.876c7.761 2.009 15.329-3.851 15.329-11.867V81.063c0-5.612-3.794-10.513-9.227-11.919z"/>
    <path fill="#EAE4D6" d="M75.925 371.962l-53.61 13.875c-7.761 2.009-15.329-3.85-15.329-11.866v30c0 8.017 7.568 13.875 15.329 11.866l53.61-13.875c97.369-25.201 170.401 2.366 179.559 3.644v-30c.001-.001-82.593-28.741-179.559-3.644z"/>
    <path fill="#E0D5BD" d="M87.499 369.209c-3.833.838-7.69 1.748-11.573 2.752l-53.61 13.875c-7.761 2.009-15.329-3.85-15.329-11.866v30c0 8.017 7.568 13.875 15.329 11.866l53.61-13.875c3.899-1.009 7.755-1.925 11.573-2.77v-29.982z"/>
    <path fill="#F9F6ED" d="M255.485 57.332v321.273c-8.83-1.232-82.594-28.74-179.56-3.643l-53.61 13.876c-7.761 2.009-15.329-3.85-15.329-11.867V81.063c0-5.612 3.794-10.513 9.227-11.919l68.453-17.717c48.018-12.428 98.397-12.529 146.465-.294l24.354 6.199z"/>
    <path fill="#EAE4D6" d="M62.024 237.248c0-74.118 21.255-141.645 56.114-192.435-11.244 1.554-22.421 3.753-33.472 6.613L16.213 69.144c-5.433 1.406-9.227 6.308-9.227 11.919v295.908c0 8.016 7.568 13.875 15.329 11.867l53.61-13.876c3.898-1.009 7.753-1.924 11.573-2.768-16.248-40.195-25.474-86.138-25.474-134.946z"/>
    <path d="M294.131 115.905c-4.065.794-6.718 4.733-5.924 8.799.794 4.064 4.726 6.723 8.799 5.924 83.812-16.37 142.489 9.805 166.674 14.122 3.993 1.034 8.097-1.355 9.14-5.382 1.038-4.01-1.371-8.102-5.382-9.14-23.727-4.203-85.602-31.447-173.307-14.323zM467.438 168.484c-23.67-4.194-85.602-31.445-173.307-14.324-4.065.794-6.717 4.733-5.924 8.799.794 4.065 4.726 6.725 8.799 5.924 41.805-8.164 85.697-6.837 126.934 3.837 41.832 10.741 39.828 10.527 41.624 10.527 8.789 0 10.335-12.573 1.874-14.763zM288.207 201.215c.794 4.066 4.726 6.72 8.799 5.924 41.805-8.164 85.697-6.837 126.934 3.837 41.832 10.74 39.828 10.527 41.624 10.527 8.789 0 10.335-12.573 1.874-14.763-24.091-4.269-85.512-31.47-173.307-14.324-4.066.794-6.718 4.733-5.924 8.799zM288.207 239.471c.794 4.064 4.726 6.722 8.799 5.924 41.805-8.164 85.697-6.836 126.934 3.837 41.832 10.74 39.828 10.526 41.624 10.526 8.789 0 10.335-12.573 1.874-14.763-23.691-4.198-85.62-31.448-173.307-14.323-4.066.794-6.718 4.733-5.924 8.799zM288.207 277.726c.794 4.064 4.726 6.725 8.799 5.924 41.803-8.162 85.695-6.835 126.934 3.837 41.832 10.741 39.828 10.527 41.624 10.527 8.789 0 10.335-12.573 1.874-14.763-23.697-4.199-85.6-31.447-173.307-14.324-4.066.794-6.718 4.733-5.924 8.799zM297.065 322.129c41.783-8.274 85.679-7.065 126.943 3.497 41.375 10.506 39.866 10.415 41.632 10.415 8.771 0 10.355-12.591 1.854-14.768-23.708-4.135-85.682-31.216-173.344-13.859-4.063.805-6.705 4.751-5.9 8.814.807 4.063 4.743 6.704 8.815 5.901zM217.221 115.905c-87.819-17.144-149.067 10.029-173.307 14.323-9.498 2.459-5.969 17.038 3.759 14.521 24.339-4.344 82.845-30.493 166.673-14.122 4.065.793 8.005-1.859 8.798-5.924.794-4.064-1.858-8.004-5.923-8.798zM217.22 154.16c-87.818-17.146-149.066 10.029-173.306 14.324-4.01 1.038-6.419 5.13-5.381 9.14 1.035 3.999 5.119 6.423 9.14 5.382 24.317-4.34 82.84-30.492 166.673-14.123 4.065.791 8.004-1.858 8.798-5.924.794-4.065-1.858-8.005-5.924-8.799zM217.221 192.416C129.402 175.27 68.154 202.445 43.914 206.74c-4.01 1.038-6.419 5.13-5.381 9.14.875 3.381 3.919 5.623 7.255 5.623.622 0 1.255-.078 1.885-.241 24.34-4.344 82.867-30.491 166.673-14.123 4.065.788 8.005-1.859 8.798-5.924.794-4.066-1.858-8.005-5.923-8.799zM217.221 230.672C129.402 213.526 68.154 240.7 43.914 244.995c-4.01 1.038-6.419 5.13-5.381 9.14.875 3.38 3.919 5.623 7.255 5.623.622 0 1.254-.078 1.885-.241 24.375-4.351 82.76-30.511 166.673-14.122 4.065.794 8.005-1.859 8.798-5.924.794-4.066-1.858-8.005-5.923-8.799zM217.221 268.927c-87.817-17.144-149.067 10.03-173.307 14.324-4.01 1.038-6.419 5.13-5.381 9.14.875 3.381 3.919 5.623 7.255 5.623.622 0 1.255-.078 1.885-.241 24.081-4.298 82.6-30.543 166.673-14.123 4.065.792 8.005-1.858 8.798-5.924.794-4.066-1.858-8.005-5.923-8.799zM217.2 307.414c-87.772-17.38-149.093 9.63-173.344 13.859-4.013 1.027-6.433 5.112-5.406 9.125 1.029 4.023 5.125 6.433 9.125 5.406 24.094-4.233 82.677-30.317 166.71-13.676 4.061.799 8.009-1.837 8.814-5.9.806-4.063-1.836-8.009-5.899-8.814zM412.545 96.267c3.54 0 6.69-2.518 7.363-6.124l.083-.444c.761-4.071-1.923-7.989-5.995-8.749-4.066-.76-7.989 1.923-8.749 5.995l-.083.444c-.761 4.071 1.923 7.988 5.995 8.749.465.087.929.129 1.386.129zM438.195 101.052c3.54 0 6.69-2.517 7.363-6.124l.083-.444c.761-4.071-1.923-7.989-5.995-8.749-4.064-.762-7.989 1.923-8.749 5.995l-.083.444c-.761 4.071 1.923 7.988 5.995 8.749.465.087.929.129 1.386.129zM464.737 106.003c3.539 0 6.688-2.516 7.363-6.121l.083-.443c.762-4.071-1.921-7.989-5.992-8.752-4.065-.754-7.989 1.921-8.752 5.992l-.083.443c-.762 4.071 1.921 7.989 5.992 8.752.466.087.931.129 1.389.129z"/>
    <path d="M504.498 280.512c4.143 0 7.5-3.357 7.5-7.5V81.063c0-9.029-6.105-16.917-14.849-19.18l-68.452-17.718c-92.321-23.894-159.982 3.562-172.698 5.428C244.3 47.876 175.087 20.408 83.3 44.165l-9.366 2.425c-4.01 1.038-6.419 5.131-5.381 9.141 1.039 4.012 5.133 6.417 9.141 5.381l9.366-2.425c86.42-22.367 151.556 3.05 161.44 4.476v305.794c-5.008-.66-79.187-25.762-173.939-1.255-55.547 14.3-54.025 14.237-55.591 13.972-2.122-.356-3.969-2.212-3.969-4.702V81.063c0-2.193 1.483-4.108 3.606-4.658l25.192-6.521c4.01-1.038 6.419-5.13 5.381-9.14-1.039-4.011-5.133-6.424-9.14-5.382l-25.192 6.521C6.105 64.146 0 72.033 0 81.063v376.72c0 12.906 12.173 22.369 24.709 19.127l53.61-13.875c102.94-26.647 170.79 5.84 179.529 3.65l15.604-3.972c52.439-13.348 107.844-13.237 160.227.321 56.456 14.391 54.155 14.516 58.608 14.516 10.567-.002 19.71-8.571 19.71-19.768V308.011c0-4.143-3.357-7.5-7.5-7.5s-7.5 3.357-7.5 7.5v68.959c0 3.115-2.929 5.387-5.95 4.606-45.154-10.148-117.431-40.65-221.295-14.213l-6.254 1.592V63.162c9.804-1.414 75.19-26.799 161.44-4.476l68.451 17.718c2.124.55 3.607 2.465 3.607 4.658v191.949c.002 4.143 3.359 7.501 7.502 7.501zm-7.5 150.27c0 3.114-2.928 5.386-5.95 4.605-42.878-9.619-116.917-40.779-221.294-14.212l-6.255 1.592v-11.332l9.954-2.534c120.686-30.719 202.013 19.615 223.545 14.262v7.619zM20.95 408.577c-3.013.778-5.95-1.485-5.95-4.606v-7.808c8.428 2.098 10.231-.983 63.319-13.94 91.908-23.786 164.647 1.472 170.18 2.213v11.521c-4.713-.611-79.16-25.786-173.938-1.255L20.95 408.577zm53.611 39.936l-53.61 13.875c-3.006.777-5.95-1.478-5.95-4.605v-7.811c8.218 2.045 10.203-.885 55.728-11.972 4.01-1.038 6.42-5.13 5.382-9.14-1.038-4.011-5.13-6.424-9.14-5.382l-46.019 11.91c-3.006.777-5.95-1.478-5.95-4.605v-7.619c8.395 2.089 10.177-.94 63.319-13.94 91.727-23.744 164.767 1.488 170.18 2.213v11.333c-5.033-.768-65.417-21.124-146.731-7.104-4.082.703-6.82 4.583-6.117 8.665.704 4.082 4.582 6.817 8.665 6.116 79.734-13.746 137.309 6.725 144.183 7.801v11.522c-4.703-.611-79.158-25.786-173.94-1.257zm416.487 13.875c-42.878-9.619-116.917-40.779-221.294-14.212l-6.255 1.592v-11.521l9.954-2.534c120.796-30.747 201.884 19.641 223.545 14.258v7.811c0 3.114-2.928 5.386-5.95 4.606zm5.95-66.225v7.808c0 21.839-89.08-44.772-227.245-9.607l-6.254 1.592v-11.521l9.954-2.534c120.298-30.622 201.866 19.647 223.545 14.262z"/>
</svg>
