<svg xmlns="http://www.w3.org/2000/svg" width="512" height="512" viewBox="0 0 511.942 511.942">
    <path fill="#ecf4ff" d="M264.183 72.593l-48.069.354c-71.739.529-141.6 22.987-200.208 64.361l-.419.296c-9.608 6.783-10.734 20.609-2.35 28.856l.298.293c5.524 5.434 13.626 7.062 20.727 4.219 8.848-3.543 20.996-8.4 30.103-12.04 2.922-1.168 5.361 2.487 3.163 4.739l-21.637 22.164c-9.017 9.236-7.86 24.296 2.459 32.05l.344.259c6.215 4.67 14.343 5.641 21.389 2.609l37.668-16.208c3.351-1.442 6.519 2.369 4.489 5.4l-24.379 36.393c-5.594 8.351-3.062 19.683 5.555 24.858 4.628 2.779 10.276 3.279 15.319 1.355l45.987-17.542 151.975-92.291z"/>
    <path fill="#ddeafb" d="M295.008 138.095l-30.825-65.502-46.39.342L97.617 273.026c3.594 1.01 7.455.885 11.019-.474l45.986-17.542 110.452-67.074z"/>
    <path fill="#ecf4ff" d="M442.218 179.523l22.27 42.601c33.236 63.578 46.231 135.8 37.242 206.975l-.064.509c-1.474 11.668-13.15 19.158-24.37 15.631l-.399-.125c-7.392-2.323-12.636-8.711-13.462-16.315-1.029-9.475-2.449-22.481-3.514-32.23-.342-3.128-4.714-3.564-5.669-.566l-9.4 29.513c-3.918 12.299-17.755 18.353-29.448 12.886l-.39-.182c-7.043-3.292-11.718-10.012-12.352-17.656l-3.388-40.867c-.301-3.636-5.154-4.642-6.876-1.425l-20.674 38.619c-4.744 8.861-15.937 11.95-24.554 6.775-4.628-2.779-7.722-7.531-8.393-12.887l-6.119-48.837 10.074-177.517z"/>
    <path fill="#ddeafb" d="M369.913 183.083l72.305-3.561 21.492 41.113-120.176 200.09c-2.58-2.699-4.284-6.165-4.758-9.95l-6.119-48.837 7.321-129.015z"/>
    <path fill="#78c2a4" d="M68.127 381.665c-4.926-2.958-6.521-9.35-3.562-14.275l210.03-349.695c2.958-4.926 9.35-6.521 14.275-3.562l193.358 116.133c4.926 2.958 6.521 9.35 3.562 14.275L275.76 494.236c-2.958 4.926-9.35 6.521-14.276 3.562z"/>
    <path fill="#66b394" d="M485.79 144.541c2.958-4.926 1.364-11.317-3.562-14.276l-17.664-10.609c4.926 2.958 6.521 9.35 3.562 14.276l-210.03 349.695c-2.958 4.926-9.35 6.52-14.275 3.562l17.664 10.609c4.926 2.958 11.317 1.364 14.275-3.562z"/>
    <path fill="#e0f8c5" d="M139.884 389.121l81.307 48.834c12.854-21.401 40.623-28.33 62.024-15.477l142.731-237.644c-21.401-12.854-28.33-40.623-15.477-62.024l-81.307-48.834c-12.854 21.401-40.623 28.33-62.025 15.477L124.408 327.096c21.401 12.854 28.33 40.623 15.476 62.025z"/>
    <path fill="#ccf49f" d="M410.47 122.809l-21.268-12.774c-9.131 15.203-8.279 33.62.653 47.62 7.409 11.613 7.601 26.43.508 38.239l-114.1 189.974c-7.087 11.799-20.274 18.6-33.995 17.516-16.555-1.307-33.214 6.592-42.345 21.796l21.268 12.774c12.854-21.401 40.623-28.33 62.024-15.477l142.731-237.644c-21.401-12.853-28.33-40.622-15.476-62.024z"/>
    <path d="M293.504 289.741c-3.481 2.223-4.512 6.845-2.299 10.336 1.429 2.254 3.858 3.486 6.342 3.486 1.373 0 2.763-.377 4.008-1.166.469-.297 8.051-5.189 14.36-13.86l3.708 2.227c1.209.726 2.54 1.071 3.854 1.071 2.546 0 5.029-1.298 6.437-3.64 2.133-3.551.982-8.158-2.568-10.291l-4.61-2.769c.186-.607.361-1.221.519-1.846 2.389-9.421-.846-19.472-8.443-26.23-6.959-6.193-16.071-8.208-23.78-5.267-3.755 1.434-7.699 3.585-12.422 6.84l-29.73-17.856c2.449-3.153 4.985-4.991 9.914-7.375 3.729-1.804 5.289-6.289 3.484-10.018-1.804-3.727-6.287-5.288-10.018-3.484-8.257 3.995-12.471 7.729-16.304 13.116l-4.656-2.796c-3.551-2.13-8.157-.982-10.291 2.568-2.133 3.551-.982 8.158 2.568 10.291l5.255 3.156c-4.106 13.053 1.174 26.18 9.752 33.514 11.084 9.478 25.669 9.472 37.155-.012 1.23-1.015 2.492-2.044 3.772-3.064l23.488 14.107c-4.353 5.57-9.339 8.861-9.495 8.962zm-45.172-31.393c-3.629-3.103-6.327-8.256-5.899-13.945l23.394 14.051c-8.371 6.601-15.492 1.606-17.495-.106zm48.051-2.542c2.421-.923 5.739.04 8.458 2.46 2.144 1.907 4.125 5.019 4.187 8.637l-15.946-9.577c1.136-.598 2.242-1.116 3.301-1.52zM234.999 322.859c-3.551-2.132-8.159-.983-10.291 2.568l-10.896 18.142c-2.133 3.551-.982 8.158 2.568 10.291 3.537 2.123 8.15.998 10.291-2.568l10.896-18.142c2.133-3.551.983-8.158-2.568-10.291zM325.646 186.502l10.896-18.141c2.133-3.551.982-8.158-2.568-10.291-3.55-2.131-8.157-.983-10.291 2.568l-10.896 18.141c-2.133 3.551-.982 8.158 2.568 10.291 3.582 2.151 8.175.953 10.291-2.568zM258.74 446.065c-3.552-2.132-8.157-.984-10.292 2.565-2.134 3.551-.984 8.158 2.565 10.292l1.747 1.05c1.21.727 2.541 1.072 3.856 1.072 2.546 0 5.028-1.297 6.436-3.638 2.134-3.551.984-8.158-2.565-10.292zM115.084 359.784l-1.747-1.049c-3.553-2.133-8.158-.983-10.291 2.57-2.132 3.552-.981 8.158 2.57 10.291l1.747 1.049c1.209.726 2.539 1.07 3.854 1.07 2.547 0 5.03-1.298 6.438-3.641 2.131-3.551.981-8.158-2.571-10.29zM435.268 152.144l1.747 1.05c1.21.727 2.541 1.072 3.856 1.072 2.546 0 5.028-1.297 6.436-3.638 2.134-3.551.984-8.158-2.565-10.292l-1.747-1.05c-3.552-2.133-8.158-.985-10.292 2.565s-.985 8.159 2.565 10.293zM291.617 65.867c1.209.726 2.539 1.07 3.854 1.07 2.547 0 5.03-1.298 6.438-3.641 2.132-3.552.981-8.158-2.57-10.291l-1.747-1.049c-3.553-2.132-8.158-.982-10.291 2.57-2.132 3.552-.981 8.158 2.57 10.291z"/>
    <path d="M414.331 116.38l-81.307-48.834c-1.705-1.022-3.747-1.329-5.677-.848s-3.59 1.71-4.614 3.416C312.029 87.935 288.821 93.727 271 83.023c-3.551-2.131-8.157-.983-10.291 2.568L117.978 323.235c-1.024 1.705-1.329 3.747-.847 5.677.481 1.931 1.71 3.59 3.415 4.614 17.822 10.704 23.613 33.911 12.909 51.733-2.133 3.551-.982 8.158 2.568 10.291l81.307 48.834c3.536 2.124 8.15.996 10.291-2.568 5.185-8.633 13.422-14.73 23.192-17.169 9.771-2.439 19.906-.925 28.541 4.261 3.571 2.145 8.171.961 10.291-2.568l28.197-46.947c2.133-3.551.982-8.158-2.568-10.291-3.55-2.13-8.157-.982-10.291 2.568l-24.606 40.969c-10.447-4.42-21.991-5.341-33.194-2.545-11.202 2.795-20.962 9.031-28.108 17.841l-69.354-41.655c9.049-21.479 2.784-46.586-15.295-61.295L269.98 99.288c21.478 9.047 46.585 2.783 61.294-15.295l69.36 41.659c-9.049 21.478-2.784 46.585 15.295 61.294l-95.505 159.013c-2.133 3.551-.982 8.158 2.568 10.291 3.551 2.132 8.157.982 10.291-2.568l99.092-164.985c2.133-3.551.982-8.158-2.568-10.291-17.821-10.704-23.612-33.911-12.908-51.733 2.133-3.552.983-8.16-2.568-10.293z"/>
    <path d="M471.135 218.649l-9.822-18.788 30.907-51.459c5.082-8.463 2.333-19.483-6.13-24.566L365.061 51.144c-3.55-2.13-8.158-.983-10.291 2.568s-.982 8.158 2.568 10.291l121.029 72.691c1.372.824 1.817 2.611.993 3.984L269.33 490.374c-.823 1.371-2.604 1.823-3.984.993L71.989 375.237c-1.373-.825-1.819-2.613-.995-3.985L281.022 21.557c.826-1.372 2.615-1.816 3.986-.995l46.326 27.825c3.521 2.115 8.22 1.246 10.44-2.21 2.297-3.575 1.171-8.315-2.446-10.487L292.731 7.703c-8.465-5.081-19.484-2.331-24.567 6.131l-30.906 51.458-21.201.156c-53.697.396-107.571 13.138-155.796 36.845-3.718 1.827-5.249 6.322-3.422 10.039 1.304 2.653 3.967 4.193 6.736 4.193 1.11 0 2.239-.248 3.303-.771 46.212-22.717 97.836-34.926 149.29-35.306l12.04-.089-100.242 166.903c-4.992 8.311-12.629 14.706-21.687 18.161-3.056 1.165-6.53.969-9.296-.776-2.284-1.441-3.862-3.678-4.453-6.324-.608-2.72-.089-5.494 1.464-7.811l24.379-36.393c2.777-4.146 2.499-9.511-.691-13.348-3.189-3.836-8.409-5.084-12.994-3.116L67.02 213.864c-8.833 3.8-19.045-2.553-19.771-12.024-.311-4.042 1.078-7.865 3.909-10.766l21.638-22.163c3.471-3.557 3.968-8.926 1.208-13.059-2.76-4.131-7.91-5.729-12.521-3.885-9.109 3.641-21.26 8.499-30.108 12.042-8.13 3.259-17.022-3.464-16.335-11.918.481-5.906 5.069-8.525 5.191-8.656 6.216-4.387 12.788-8.695 19.54-12.805 3.266-1.988 4.773-6.086 3.217-9.578-1.88-4.219-6.945-5.707-10.761-3.389-11.513 6.995-18.745 12.235-21.065 13.813C4.761 135.995.725 143.066.09 150.874c-1.587 19.499 18.38 34.461 36.861 27.061l9.965-3.988-6.491 6.648c-5.803 5.945-8.768 14.106-8.132 22.391 1.51 19.711 22.397 32.515 40.656 24.656l25.726-11.07-17.143 25.591c-4.411 6.584-5.47 14.655-2.821 22.317 1.491 4.313 4.184 8.158 7.728 11.032 4.661 3.78 10.253 5.71 15.902 5.709 1.882 0 3.768-.24 5.632-.671l-49.838 82.979c-5.082 8.463-2.332 19.482 6.131 24.566l193.356 116.131c8.483 5.098 19.472 2.357 24.567-6.129l49.826-82.959c1.672 6.234 5.657 11.57 11.292 14.954 12.261 7.364 28.231 3.034 35.027-9.663l14.538-27.158 2.313 27.911c1.676 20.193 23.102 32.08 40.866 24.307 7.611-3.331 13.423-9.782 15.945-17.698l2.819-8.853 1.161 10.669c2.126 19.568 24.559 30.504 41.205 19.828 6.595-4.23 10.94-11.114 11.925-18.9-.219-8.393 18.61-103.648-37.971-211.886zm23.091 210.018c-.89 7.037-7.935 11.537-14.674 9.419-.1-.067-7.773-1.928-8.661-10.099-1.029-9.477-2.448-22.484-3.514-32.235-.54-4.938-4.369-8.733-9.312-9.229-4.944-.503-9.45 2.466-10.959 7.2l-9.4 29.514c-4.626 14.534-26.32 11.782-27.569-3.295l-3.388-40.867c-.413-4.973-3.973-8.994-8.857-10.007-4.881-1.008-9.751 1.262-12.106 5.661l-20.674 38.62c-2.782 5.197-9.408 6.928-14.397 3.685-2.56-1.664-4.155-4.47-4.534-7.499l-.003-.028c-1.206-9.62.852-19.366 5.844-27.677l100.244-166.904 5.578 10.67c54.596 104.447 36.232 197.378 36.382 203.071z"/>
    <path d="M109.083 147.062c.365-.231 36.989-22.946 71.271-14.258 4.014 1.021 8.096-1.411 9.113-5.426 1.019-4.016-1.411-8.096-5.426-9.113-40.449-10.259-81.235 15.021-82.953 16.104-3.505 2.208-4.557 6.839-2.35 10.344 2.198 3.487 6.823 4.566 10.345 2.349zM422.7 280.979c-3.491 2.229-4.516 6.866-2.287 10.357 18.915 29.632 9.007 71.591 8.871 72.148-1.167 4.744 2.436 9.294 7.289 9.294 3.368 0 6.431-2.286 7.275-5.703.486-1.97 11.659-48.64-10.791-83.81-2.229-3.491-6.867-4.515-10.357-2.286z"/>
</svg>
