<svg xmlns="http://www.w3.org/2000/svg" width="512" height="512" viewBox="0 0 512.018 512.018">
    <path fill="#d1a08f" d="M358.201 428.031L344.1 445.472c-1.193 1.476-1.844 3.316-1.844 5.214v9.887c0 2.942 1.559 5.664 4.096 7.153l48.51 28.469c3.928 2.305 2.293 8.322-2.262 8.322H114.081c-4.555 0-6.19-6.017-2.262-8.322l48.51-28.469c2.537-1.489 4.096-4.211 4.096-7.153v-9.887c0-1.898-.651-3.738-1.844-5.214l-14.101-17.441-4.614-4.614c-1.622-1.622-.473-4.396 1.821-4.396h213.388c3.002 0 4.506 3.63 2.383 5.753z"/>
    <path fill="#c8effe" d="M356.547 350.147c50.221-33.531 83.305-90.716 83.305-155.635C439.852 91.228 356.124 7.5 252.84 7.5S65.829 91.228 65.829 194.512c0 65.221 33.395 122.634 84.012 156.1l80.844 34.829h74.519z"/>
    <path fill="#99e6fc" d="M139.47 194.512c0-90.679 64.558-166.282 150.207-183.385C277.771 8.75 265.445 7.5 252.84 7.5 149.557 7.5 65.829 91.228 65.829 194.512c0 65.221 33.395 122.634 84.012 156.1l80.844 34.829h73.641l-80.844-34.829c-50.617-33.466-84.012-90.879-84.012-156.1z"/>
    <path fill="#d1a08f" d="M335.751 390.599H170.929c-4.897 0-9.247-3.127-10.808-7.768l-10.348-30.771c-.439-1.305.532-2.656 1.909-2.656H355c1.377 0 2.348 1.351 1.909 2.656l-10.348 30.771c-1.562 4.642-5.913 7.768-10.81 7.768z"/>
    <path fill="#c68d7a" d="M250.499 378.017c-11.572 0-21.852-7.389-25.541-18.357l-3.449-10.255h-69.828c-1.377 0-2.348 1.351-1.909 2.656l10.348 30.771c1.561 4.642 5.911 7.768 10.808 7.768H335.75c4.897 0 9.248-3.127 10.809-7.769l1.619-4.814zM359.075 419.021H145.687c-2.294 0-3.443 2.774-1.821 4.396l4.614 4.614 14.101 17.441c1.193 1.476 1.844 3.316 1.844 5.214v9.887c0 2.942-1.559 5.664-4.096 7.153l-48.51 28.469c-3.928 2.305-2.293 8.322 2.262 8.322h50.985c-4.555 0-6.19-6.017-2.262-8.322l48.51-28.469c2.537-1.489 4.096-4.211 4.096-7.153 0 0-.022-1.655-.064-3.766-.097-4.817 3.778-8.777 8.596-8.777h118.754c.312-.923.782-1.791 1.404-2.559l14.101-17.441 3.257-3.257c2.123-2.122.619-5.752-2.383-5.752zm-162.866.043v5.711l-1.358-1.358c-1.508-1.509-.619-4.01 1.358-4.353z"/>
    <path fill="#bc7c63" d="M358.201 390.599H148.48c-4.976 0-9.01 4.034-9.01 9.01v19.411c0 4.976 4.034 9.01 9.01 9.01H358.2c4.976 0 9.01-4.034 9.01-9.01v-19.41c.001-4.977-4.033-9.011-9.009-9.011z"/>
    <path fill="#aa6a51" d="M190.455 419.021V399.61c0-4.976 4.034-9.01 9.01-9.01H148.48c-4.976 0-9.01 4.034-9.01 9.01v19.411c0 4.976 4.034 9.01 9.01 9.01h50.985c-4.976 0-9.01-4.034-9.01-9.01z"/>
    <g fill="#fee45a">
        <path d="M402.91 142.109c-7.243-14.246-16.26-26.482-27.677-36-3.713-3.096-3.947-8.703-.442-12.032 11.786-11.195 20.963-24.203 28.039-38.824 2.89-5.972 11.365-6.096 14.372-.183 7.897 15.528 17.189 28.825 28.13 39.48 3.26 3.174 3.163 8.49-.196 11.559-11.045 10.093-20.359 22.216-28.067 36.22-3.096 5.624-11.249 5.503-14.159-.22zM91.141 117.835c-4.9-9.638-11-17.916-18.724-24.355-2.512-2.094-2.67-5.888-.299-8.14 7.973-7.574 14.182-16.374 18.969-26.265 1.955-4.04 7.689-4.124 9.723-.124 5.343 10.505 11.629 19.501 19.031 26.709 2.205 2.148 2.14 5.744-.132 7.82-7.472 6.828-13.774 15.029-18.988 24.504-2.095 3.805-7.611 3.723-9.58-.149zM82.065 303.617c-4.203-8.267-9.436-15.367-16.061-20.891-2.155-1.796-2.291-5.05-.257-6.982 6.839-6.496 12.165-14.045 16.271-22.529 1.677-3.465 6.595-3.538 8.34-.106 4.583 9.011 9.975 16.727 16.324 22.91 1.892 1.842 1.835 4.927-.114 6.708-6.41 5.857-11.814 12.892-16.287 21.018-1.797 3.264-6.528 3.194-8.216-.128z"/>
    </g>
    <g>
        <path d="M436.303 157.355c-4.09.654-6.876 4.5-6.222 8.59 1.507 9.426 2.271 19.037 2.271 28.566 0 26.979-5.848 52.927-17.38 77.122-1.783 3.739-.196 8.215 3.543 9.997 1.042.497 2.14.732 3.222.732 2.802 0 5.49-1.577 6.775-4.275 12.501-26.226 18.84-54.345 18.84-83.576 0-10.32-.828-20.729-2.459-30.935-.654-4.089-4.503-6.878-8.59-6.221zM409.759 296.532c-3.377-2.398-8.06-1.605-10.458 1.773-12.111 17.056-26.909 31.712-44.014 43.616-.097-.003-.191-.017-.288-.017H226.906c-4.142 0-7.5 3.358-7.5 7.5s3.358 7.5 7.5 7.5h120.46l-7.915 23.536c-.535 1.59-2.021 2.659-3.699 2.659H170.929c-1.678 0-3.165-1.069-3.699-2.659l-7.915-23.536h35.628c4.142 0 7.5-3.358 7.5-7.5s-3.358-7.5-7.5-7.5h-43.262c-.397 0-.79.027-1.179.076-10.912-7.589-21.002-16.389-30.021-26.228-2.799-3.053-7.543-3.26-10.596-.46-3.054 2.799-3.26 7.543-.46 10.596 10.006 10.916 21.233 20.648 33.388 29.003l9.486 28.208h-3.819c-9.104 0-16.51 7.406-16.51 16.51v19.412c0 7.726 5.341 14.21 12.519 16.002l12.26 15.164c.114.141.177.318.177.499v9.887c0 .28-.15.542-.392.685l-48.51 28.469c-4.72 2.771-6.927 8.18-5.491 13.461s6.077 8.829 11.549 8.829H392.6c5.473 0 10.114-3.548 11.549-8.829 1.436-5.281-.771-10.691-5.492-13.461l-48.51-28.47c-.242-.142-.392-.404-.392-.684v-9.887c0-.181.063-.358.176-.499l12.26-15.164c7.178-1.792 12.519-8.276 12.519-16.002v-19.412c0-9.104-7.406-16.51-16.51-16.51h-3.819l9.635-28.649c.045-.133.07-.269.109-.403 18.416-12.861 34.352-28.674 47.407-47.058 2.398-3.376 1.605-8.058-1.773-10.457zm-50.048 103.077v19.412c0 .833-.678 1.51-1.51 1.51h-37.426c-4.142 0-7.5 3.358-7.5 7.5s3.358 7.5 7.5 7.5h21.717l-4.225 5.225c-2.265 2.801-3.512 6.328-3.512 9.93v9.887c0 5.579 2.989 10.798 7.8 13.621l38.889 22.823H125.236l38.889-22.823c4.811-2.823 7.8-8.043 7.8-13.622v-9.887c0-3.602-1.247-7.128-3.512-9.93l-4.225-5.225h124.624c4.142 0 7.5-3.358 7.5-7.5s-3.358-7.5-7.5-7.5H148.48c-.833 0-1.51-.678-1.51-1.51v-19.412c0-.833.678-1.51 1.51-1.51h209.721c.832.002 1.51.679 1.51 1.511zM68.386 232.98c.41 0 .825-.034 1.242-.103 4.086-.681 6.846-4.546 6.165-8.631-1.635-9.807-2.464-19.811-2.464-29.734 0-16.963 2.37-33.765 7.044-49.937 1.15-3.979-1.143-8.137-5.123-9.288-3.979-1.149-8.137 1.144-9.288 5.123-5.066 17.526-7.634 35.729-7.634 54.102 0 10.747.898 21.581 2.668 32.201.613 3.668 3.79 6.267 7.39 6.267zM131.449 59.766c1.723 0 3.455-.59 4.868-1.797C168.754 30.26 210.136 15 252.84 15c41.524 0 82.016 14.509 114.017 40.855 3.199 2.632 7.924 2.175 10.557-1.023s2.175-7.924-1.023-10.557C341.712 15.724 297.834 0 252.84 0c-46.273 0-91.116 16.537-126.267 46.563-3.149 2.69-3.521 7.424-.831 10.574 1.484 1.737 3.589 2.629 5.707 2.629zM450.564 89.176c-9.997-9.735-18.973-22.355-26.678-37.507-2.685-5.281-8.069-8.495-13.96-8.466-5.95.059-11.256 3.424-13.849 8.781-6.947 14.355-15.6 26.345-26.453 36.653-3.205 3.044-4.961 7.322-4.818 11.736.144 4.446 2.193 8.635 5.623 11.495 10.152 8.463 18.59 19.467 25.794 33.639 2.606 5.127 7.804 8.371 13.563 8.465l.258.002c5.667 0 10.858-3.059 13.594-8.03 7.371-13.394 16.306-24.934 26.555-34.3 3.123-2.854 4.953-6.925 5.02-11.169.069-4.237-1.626-8.355-4.649-11.299zm-10.487 11.396c-11.463 10.475-21.415 23.307-29.579 38.141-.059.106-.169.245-.464.263-.306-.005-.382-.155-.438-.265-8.145-16.021-17.814-28.57-29.56-38.362-.151-.126-.23-.28-.236-.458-.007-.22.103-.325.156-.375C391.973 88.1 401.94 74.307 409.58 58.519c.061-.124.151-.313.495-.315h.01c.296 0 .365.135.432.266 8.452 16.621 18.405 30.568 29.583 41.454.03.029.121.118.118.315-.004.137-.051.25-.141.333zM67.615 99.241c6.61 5.511 12.119 12.705 16.841 21.993 2.171 4.272 6.501 6.975 11.298 7.054l.215.002c4.719 0 9.042-2.549 11.321-6.689 4.858-8.828 10.738-16.426 17.477-22.583 2.604-2.379 4.129-5.772 4.185-9.309.056-3.532-1.358-6.965-3.879-9.421-6.571-6.399-12.485-14.722-17.578-24.736-2.238-4.399-6.697-7.107-11.631-7.054-4.953.049-9.371 2.851-11.528 7.31-4.57 9.443-10.256 17.325-17.383 24.094-2.67 2.536-4.133 6.1-4.014 9.777.12 3.698 1.823 7.184 4.676 9.562zm28.399-33.306c5.005 9.161 10.714 17.052 17.018 23.522-6.422 6.159-12.123 13.408-16.993 21.606-4.87-8.805-10.503-16.004-17.119-21.88 6.709-6.698 12.442-14.496 17.094-23.248zM111.627 288.263c2.449-2.238 3.884-5.429 3.937-8.755.053-3.322-1.278-6.552-3.65-8.862-5.553-5.408-10.556-12.452-14.871-20.937-2.104-4.137-6.262-6.692-10.938-6.633-4.656.046-8.81 2.679-10.839 6.873-3.862 7.981-8.666 14.641-14.685 20.358-2.511 2.385-3.887 5.736-3.775 9.195.113 3.477 1.714 6.752 4.394 8.986 5.557 4.633 10.195 10.693 14.179 18.529 2.042 4.018 6.114 6.559 10.625 6.633l.202.001c4.437 0 8.502-2.396 10.645-6.29 4.111-7.469 9.083-13.895 14.776-19.098zm-25.33 7.437c-3.817-6.578-8.165-12.09-13.173-16.703 5.058-5.193 9.455-11.119 13.131-17.689 3.909 6.873 8.291 12.882 13.083 17.941-4.859 4.786-9.227 10.296-13.041 16.451z"/>
    </g>
</svg>
