<svg 
 xmlns="http://www.w3.org/2000/svg"
 xmlns:xlink="http://www.w3.org/1999/xlink"
 width="118px" height="118px">
<path fill-rule="evenodd"  stroke-width="2px" stroke="rgb(230, 230, 230)" fill="rgb(255, 255, 255)"
 d="M59.000,5.000 C88.823,5.000 113.000,29.177 113.000,59.000 C113.000,88.823 88.823,113.000 59.000,113.000 C29.177,113.000 5.000,88.823 5.000,59.000 C5.000,29.177 29.177,5.000 59.000,5.000 Z"/>
<path fill-rule="evenodd"  stroke-width="2px" stroke="rgb(63, 135, 211)" fill-opacity="0" fill="rgb(255, 0, 0)"
 d="M58.000,74.000 C60.761,74.000 63.000,76.238 63.000,79.000 C63.000,81.761 60.761,84.000 58.000,84.000 C55.238,84.000 53.000,81.761 53.000,79.000 C53.000,76.238 55.238,74.000 58.000,74.000 Z"/>
<path fill-rule="evenodd"  stroke-width="2px" stroke="rgb(63, 135, 211)" fill="rgb(255, 255, 255)"
 d="M40.000,46.000 L78.000,46.000 L78.000,78.000 L40.000,78.000 L40.000,46.000 Z"/>
<path fill-rule="evenodd"  fill="rgb(63, 135, 211)"
 d="M37.000,76.000 L81.000,76.000 C81.552,76.000 82.000,76.448 82.000,77.000 C82.000,77.552 81.552,78.000 81.000,78.000 L37.000,78.000 C36.448,78.000 36.000,77.552 36.000,77.000 C36.000,76.448 36.448,76.000 37.000,76.000 Z"/>
<path fill-rule="evenodd"  stroke-width="2px" stroke="rgb(63, 135, 211)" fill="rgb(255, 255, 255)"
 d="M38.000,39.000 L80.000,39.000 C81.104,39.000 82.000,39.895 82.000,41.000 L82.000,46.000 C82.000,47.104 81.104,48.000 80.000,48.000 L38.000,48.000 C36.895,48.000 36.000,47.104 36.000,46.000 L36.000,41.000 C36.000,39.895 36.895,39.000 38.000,39.000 Z"/>
<path fill-rule="evenodd"  fill="rgb(63, 135, 211)"
 d="M56.000,71.000 C55.448,71.000 55.000,70.552 55.000,70.000 L55.000,54.000 C55.000,53.447 55.448,53.000 56.000,53.000 C56.552,53.000 57.000,53.447 57.000,54.000 L57.000,70.000 C57.000,70.552 56.552,71.000 56.000,71.000 ZM51.000,71.000 C50.448,71.000 50.000,70.552 50.000,70.000 L50.000,60.000 C50.000,59.448 50.448,59.000 51.000,59.000 C51.552,59.000 52.000,59.448 52.000,60.000 L52.000,70.000 C52.000,70.552 51.552,71.000 51.000,71.000 ZM46.000,71.000 C45.448,71.000 45.000,70.552 45.000,70.000 L45.000,64.000 C45.000,63.448 45.448,63.000 46.000,63.000 C46.552,63.000 47.000,63.448 47.000,64.000 L47.000,70.000 C47.000,70.552 46.552,71.000 46.000,71.000 Z"/>
<path fill-rule="evenodd"  fill="rgb(63, 135, 211)"
 d="M72.000,64.000 L63.000,64.000 C62.448,64.000 62.000,63.552 62.000,63.000 C62.000,62.447 62.448,62.000 63.000,62.000 L72.000,62.000 C72.552,62.000 73.000,62.447 73.000,63.000 C73.000,63.552 72.552,64.000 72.000,64.000 ZM72.000,59.000 L63.000,59.000 C62.448,59.000 62.000,58.552 62.000,58.000 C62.000,57.448 62.448,57.000 63.000,57.000 L72.000,57.000 C72.552,57.000 73.000,57.448 73.000,58.000 C73.000,58.552 72.552,59.000 72.000,59.000 ZM63.000,67.000 L72.000,67.000 C72.552,67.000 73.000,67.448 73.000,68.000 C73.000,68.552 72.552,69.000 72.000,69.000 L63.000,69.000 C62.448,69.000 62.000,68.552 62.000,68.000 C62.000,67.448 62.448,67.000 63.000,67.000 Z"/>
</svg>