<svg 
 xmlns="http://www.w3.org/2000/svg"
 xmlns:xlink="http://www.w3.org/1999/xlink"
 width="118px" height="118px">
<path fill-rule="evenodd"  stroke-width="2px" stroke="rgb(230, 230, 230)" fill="rgb(255, 255, 255)"
 d="M59.000,5.000 C88.823,5.000 113.000,29.177 113.000,59.000 C113.000,88.823 88.823,113.000 59.000,113.000 C29.177,113.000 5.000,88.823 5.000,59.000 C5.000,29.177 29.177,5.000 59.000,5.000 Z"/>
<path fill-rule="evenodd"  stroke-width="2px" stroke="rgb(63, 135, 211)" fill="rgb(255, 255, 255)"
 d="M52.000,49.000 L66.000,49.000 C67.104,49.000 68.000,49.895 68.000,51.000 L71.000,63.000 C71.000,64.104 70.105,65.000 69.000,65.000 L49.000,65.000 C47.895,65.000 47.000,64.104 47.000,63.000 L50.000,51.000 C50.000,49.895 50.895,49.000 52.000,49.000 Z"/>
<path fill-rule="evenodd"  stroke-width="2px" stroke="rgb(63, 135, 211)" fill="rgb(255, 255, 255)"
 d="M41.000,63.000 L55.000,63.000 C56.105,63.000 57.000,63.895 57.000,65.000 L60.000,77.000 C60.000,78.105 59.104,79.000 58.000,79.000 L38.000,79.000 C36.895,79.000 36.000,78.105 36.000,77.000 L39.000,65.000 C39.000,63.895 39.895,63.000 41.000,63.000 Z"/>
<path fill-rule="evenodd"  stroke-width="2px" stroke="rgb(63, 135, 211)" fill="rgb(255, 255, 255)"
 d="M63.000,63.000 L77.000,63.000 C78.105,63.000 79.000,63.895 79.000,65.000 L82.000,77.000 C82.000,78.105 81.104,79.000 80.000,79.000 L60.000,79.000 C58.895,79.000 58.000,78.105 58.000,77.000 L61.000,65.000 C61.000,63.895 61.895,63.000 63.000,63.000 Z"/>
<path fill-rule="evenodd"  fill="rgb(63, 135, 211)"
 d="M59.000,31.000 C59.552,31.000 60.000,31.448 60.000,32.000 L60.000,42.000 C60.000,42.552 59.552,43.000 59.000,43.000 C58.448,43.000 58.000,42.552 58.000,42.000 L58.000,32.000 C58.000,31.448 58.448,31.000 59.000,31.000 Z"/>
<path fill-rule="evenodd"  fill="rgb(63, 135, 211)"
 d="M77.243,37.757 C77.633,38.148 77.633,38.781 77.243,39.171 L70.172,46.242 C69.781,46.633 69.148,46.633 68.757,46.242 C68.367,45.852 68.367,45.219 68.757,44.828 L75.828,37.757 C76.219,37.367 76.852,37.367 77.243,37.757 Z"/>
<path fill-rule="evenodd"  fill="rgb(63, 135, 211)"
 d="M40.757,37.757 C41.148,37.367 41.781,37.367 42.171,37.757 L49.243,44.828 C49.633,45.219 49.633,45.852 49.243,46.242 C48.852,46.633 48.219,46.633 47.828,46.242 L40.757,39.171 C40.367,38.781 40.367,38.148 40.757,37.757 Z"/>
</svg>