<svg xmlns="http://www.w3.org/2000/svg" enable-background="new 0 0 512.001 512.001" viewBox="0 0 512.001 512.001">
    <path fill="#AA4141" d="M391.749 502.161L161.86 467.292c-20.123-3.052-33.962-21.84-30.91-41.963l58.561-386.087c3.052-20.123 21.84-33.962 41.963-30.91l229.889 34.869c20.123 3.052 33.962 21.84 30.91 41.963l-58.561 386.087c-3.052 20.124-21.839 33.963-41.963 30.91z"/>
    <path fill="#963737" d="M189.512 39.243l-58.561 386.086c-3.052 20.123 10.786 38.911 30.91 41.963l201.306 30.533V41.02c0-4.606-.852-9.011-2.396-13.076L231.475 8.333c-20.124-3.052-38.911 10.787-41.963 30.91z"/>
    <path fill="#FFEBBE" d="M386.407 482.373l-213.576-32.395c-12.441-1.887-20.997-13.502-19.11-25.944l56.706-373.856c1.887-12.441 13.502-20.997 25.944-19.11l213.577 32.395c12.441 1.887 20.997 13.502 19.11 25.944l-56.707 373.856c-1.887 12.441-13.503 20.997-25.944 19.11z"/>
    <path fill="#F7DBB5" d="M363.496 478.847V50.301L236.699 31.068c-12.441-1.887-24.057 6.669-25.944 19.11l-56.706 373.856c-1.887 12.441 6.669 24.057 19.11 25.944l190.337 28.869z"/>
    <circle cx="286.131" cy="241.4" r="143.49" fill="#FF7955"/>
    <path fill="#F44D4D" d="M363.496 120.533c-22.324-14.319-48.875-22.623-77.365-22.623-32.751 0-62.932 10.98-87.082 29.45l-29.902 197.138c26.008 36.545 68.712 60.383 116.984 60.383 28.491 0 55.041-8.304 77.365-22.623V120.533z"/>
    <circle cx="287.221" cy="242.48" r="101.45" fill="#FFCF65"/>
    <path fill="#FFB864" d="M363.496 175.608c-18.593-21.191-45.872-34.573-76.279-34.573-56.027 0-101.447 45.419-101.447 101.447 0 56.027 45.419 101.447 101.447 101.447 30.407 0 57.686-13.382 76.279-34.573V175.608z"/>
    <path fill="#FF554D" d="M282.556 346.289l-87.418-143.657c-1.929-3.169.353-7.228 4.063-7.228h174.835c3.71 0 5.991 4.059 4.063 7.228l-87.418 143.657c-1.852 3.045-6.272 3.045-8.125 0z"/>
    <path fill="#ED4A4A" d="M195.139 202.633l85.862 141.1c2.057.125 4.128.195 6.216.195 1.67 0 3.329-.047 4.979-.127l71.3-117.17v-31.227H199.202c-.784 0-1.498.189-2.128.505-.889 1.716-1.729 3.462-2.521 5.234.107.505.292 1.008.586 1.49z"/>
    <path fill="#AA4141" d="M288.674 504.093H56.156c-20.353 0-36.853-16.5-36.853-36.853V76.737c0-20.353 16.5-36.853 36.853-36.853h232.518c20.353 0 36.853 16.5 36.853 36.853V467.24c0 20.353-16.5 36.853-36.853 36.853z"/>
    <path fill="#FFEBBE" d="M283.278 480.873H57.384c-9.375 0-16.974-7.6-16.974-16.974V77.149c0-9.375 7.6-16.974 16.974-16.974h225.894c9.375 0 16.974 7.6 16.974 16.974v386.749c.001 9.375-7.599 16.975-16.974 16.975z"/>
    <path fill="#FF7955" d="M167.518 150.298L62.013 324.642c-2.308 3.815.438 8.687 4.897 8.687h211.009c4.459 0 7.206-4.873 4.897-8.687L177.312 150.298c-2.227-3.681-7.567-3.681-9.794 0z"/>
    <path fill="#FF915A" d="M167.52 393.682L62.529 220.423c-2.312-3.815.435-8.69 4.895-8.69h209.982c4.46 0 7.207 4.876 4.895 8.69L177.31 393.682c-2.228 3.677-7.562 3.677-9.79 0z"/>
    <path fill="#FFB864" d="M93.835 272.071L130.956 333.33 213.891 333.33 251.012 272.071 214.499 211.733 130.349 211.733z"/>
    <circle cx="172.411" cy="271.88" r="20.14" fill="#FF554D"/>
    <path d="M491.876 53.092c-7.091-9.626-17.507-15.915-29.327-17.707-4.321-.658-8.349 2.313-9.004 6.633-.655 4.317 2.315 8.348 6.632 9.003 7.645 1.159 14.38 5.226 18.966 11.451 4.585 6.225 6.472 13.863 5.313 21.507l-58.562 386.087c-1.159 7.645-5.226 14.38-11.451 18.965-6.225 4.587-13.867 6.476-21.507 5.313l-63.084-9.568c2.304-5.388 3.582-11.315 3.582-17.536v-81.995c28.735-9.47 54.48-27.737 72.977-51.9 20.355-26.587 31.113-58.382 31.113-91.949s-10.758-65.362-31.113-91.949c-18.498-24.164-44.242-42.43-72.977-51.9v-20.81c0-24.681-20.08-44.761-44.761-44.761h-88.7c2.021-4.115 5.01-7.715 8.807-10.512 6.225-4.586 13.87-6.471 21.507-5.313l190.212 28.851c4.31.65 8.349-2.314 9.004-6.632s-2.315-8.349-6.632-9.004L232.66.516c-11.821-1.793-23.632 1.123-33.259 8.215-7.937 5.846-13.597 13.955-16.346 23.246H56.156c-24.681 0-44.761 20.08-44.761 44.761v106.31c0 4.368 3.54 7.907 7.907 7.907s7.907-3.54 7.907-7.907V76.737c0-15.961 12.985-28.946 28.946-28.946h232.518c15.961 0 28.946 12.985 28.946 28.946v390.502c0 15.961-12.985 28.946-28.946 28.946H56.156c-15.961 0-28.946-12.984-28.946-28.946V222.796c0-4.368-3.54-7.907-7.907-7.907s-7.907 3.54-7.907 7.907V467.24c0 24.681 20.08 44.761 44.761 44.761h232.518c12.139 0 23.158-4.864 31.23-12.738l70.66 10.717c2.275.345 4.549.516 6.808.516 9.478 0 18.677-3.004 26.451-8.731 9.626-7.09 15.915-17.506 17.707-29.326l58.56-386.088c1.793-11.821-1.124-23.633-8.215-33.259zM333.434 161.136c11.797 6.682 21.817 15.705 29.55 26.36h-29.55v-26.36zm0 42.175h34.997l-34.997 57.511v-57.511zm60.42-44.252c18.223 23.804 27.855 52.276 27.855 82.337s-9.632 58.532-27.855 82.335c-15.504 20.253-36.687 35.876-60.42 44.749v-77.235l44.24-72.701c2.017 7.684 3.082 15.712 3.082 23.937 0 22.713-8.239 44.612-23.2 61.663-2.88 3.282-2.554 8.278.729 11.159 1.501 1.317 3.36 1.963 5.212 1.963 2.197 0 4.384-.911 5.947-2.692 17.493-19.936 27.127-45.539 27.127-72.093 0-42.843-24.615-81.185-63.137-99.121v-29.05c23.734 8.874 44.916 24.497 60.42 44.749z"/>
    <path d="M54.597 334.271c2.412 4.289 6.969 6.954 11.891 6.954h59.848l34.424 56.571c2.496 4.102 6.853 6.55 11.654 6.55 4.802 0 9.159-2.448 11.655-6.55l34.425-56.571h59.848c4.922 0 9.478-2.665 11.89-6.954 2.412-4.289 2.324-9.567-.233-13.772l-29.426-48.424 28.908-47.505c2.56-4.206 2.65-9.485.237-13.776-2.412-4.291-6.968-6.957-11.891-6.957h-58.721l-35.032-57.649c-2.496-4.106-6.855-6.558-11.66-6.557-4.804 0-9.163 2.452-11.657 6.558h.001l-35.033 57.648h-58.72c-4.924 0-9.481 2.667-11.892 6.958-2.412 4.292-2.322 9.571.238 13.776l28.907 47.504-29.427 48.423c-2.558 4.206-2.646 9.484-.234 13.773zm117.818 52.256l-27.566-45.301h55.133l-27.567 45.301zm-37.19-61.116l-32.459-53.341 31.854-52.418h75.59l31.854 52.418-32.459 53.341h-74.38zm139.253 0h-46.361l23.196-38.12 23.165 38.12zm-.517-105.76l-22.638 37.202-22.607-37.202h45.245zm-101.546-62.195l28.185 46.38h-56.369l28.184-46.38zM70.869 219.651h45.245l-22.607 37.201-22.638-37.201zm22.647 67.64l23.196 38.12H70.351l23.165-38.12z"/>
    <path d="M172.415 243.833c-15.465 0-28.046 12.581-28.046 28.046 0 15.464 12.581 28.045 28.046 28.045 15.464 0 28.045-12.581 28.045-28.045 0-15.465-12.581-28.046-28.045-28.046zm0 40.275c-6.744 0-12.231-5.486-12.231-12.23 0-6.744 5.487-12.231 12.231-12.231s12.23 5.487 12.23 12.231c0 6.745-5.486 12.23-12.23 12.23z"/>
</svg>
