<svg 
 xmlns="http://www.w3.org/2000/svg"
 xmlns:xlink="http://www.w3.org/1999/xlink"
 width="118px" height="118px">
<defs>
<filter id="Filter_0">
    <feFlood flood-color="rgb(63, 135, 211)" flood-opacity="1" result="floodOut" />
    <feComposite operator="atop" in="floodOut" in2="SourceGraphic" result="compOut" />
    <feBlend mode="normal" in="compOut" in2="SourceGraphic" />
</filter>

</defs>
<path fill-rule="evenodd"  stroke-width="2px" stroke="rgb(230, 230, 230)" fill="rgb(255, 255, 255)"
 d="M59.000,5.000 C88.823,5.000 113.000,29.177 113.000,59.000 C113.000,88.823 88.823,113.000 59.000,113.000 C29.177,113.000 5.000,88.823 5.000,59.000 C5.000,29.177 29.177,5.000 59.000,5.000 Z"/>
<g filter="url(#Filter_0)">
<path fill-rule="evenodd"  fill="rgb(68, 68, 68)"
 d="M42.000,39.000 C42.552,39.000 43.000,39.448 43.000,40.000 L43.000,82.000 C43.000,82.552 42.552,83.000 42.000,83.000 C41.448,83.000 41.000,82.552 41.000,82.000 L41.000,40.000 C41.000,39.448 41.448,39.000 42.000,39.000 Z"/>
<path fill-rule="evenodd"  fill="rgb(68, 68, 68)"
 d="M37.000,76.000 L79.000,76.000 C79.552,76.000 80.000,76.448 80.000,77.000 C80.000,77.552 79.552,78.000 79.000,78.000 L37.000,78.000 C36.448,78.000 36.000,77.552 36.000,77.000 C36.000,76.448 36.448,76.000 37.000,76.000 Z"/>
<path fill-rule="evenodd"  fill="rgb(68, 68, 68)"
 d="M47.634,68.687 L54.634,55.313 C54.910,54.835 55.522,54.671 56.000,54.947 C56.478,55.223 56.642,55.835 56.366,56.313 L49.366,69.686 C49.090,70.165 48.478,70.328 48.000,70.052 C47.522,69.776 47.358,69.165 47.634,68.687 Z"/>
<path fill-rule="evenodd"  fill="rgb(68, 68, 68)"
 d="M64.866,68.530 L56.866,55.491 C56.590,55.022 55.978,54.862 55.500,55.132 C55.022,55.402 54.858,56.002 55.134,56.470 L63.134,69.509 C63.410,69.978 64.022,70.138 64.500,69.868 C64.978,69.597 65.142,68.998 64.866,68.530 Z"/>
<path fill-rule="evenodd"  fill="rgb(68, 68, 68)"
 d="M63.634,68.687 L76.634,44.313 C76.910,43.835 77.522,43.671 78.000,43.947 C78.478,44.224 78.642,44.835 78.366,45.313 L65.366,69.686 C65.090,70.165 64.478,70.328 64.000,70.052 C63.522,69.776 63.358,69.165 63.634,68.687 Z"/>
<path fill-rule="evenodd"  fill="rgb(68, 68, 68)"
 d="M79.000,51.000 C78.448,51.000 78.000,50.552 78.000,50.000 L78.000,45.000 L73.000,45.000 C72.448,45.000 72.000,44.552 72.000,44.000 C72.000,43.447 72.448,43.000 73.000,43.000 L79.000,43.000 C79.552,43.000 80.000,43.447 80.000,44.000 L80.000,50.000 C80.000,50.552 79.552,51.000 79.000,51.000 Z"/>
</g>
</svg>