<svg 
 xmlns="http://www.w3.org/2000/svg"
 xmlns:xlink="http://www.w3.org/1999/xlink"
 width="118px" height="118px">
<path fill-rule="evenodd"  stroke-width="2px" stroke="rgb(230, 230, 230)" fill="rgb(255, 255, 255)"
 d="M59.000,5.000 C88.823,5.000 113.000,29.176 113.000,59.000 C113.000,88.823 88.823,113.000 59.000,113.000 C29.177,113.000 5.000,88.823 5.000,59.000 C5.000,29.176 29.177,5.000 59.000,5.000 Z"/>
<path fill-rule="evenodd"  stroke-width="2px" stroke="rgb(63, 135, 211)" fill-opacity="0" fill="rgb(255, 0, 0)"
 d="M48.894,58.409 C52.095,57.551 55.385,59.451 56.243,62.652 L59.348,74.243 C60.206,77.443 58.307,80.733 55.106,81.591 C51.905,82.449 48.615,80.549 47.757,77.348 L44.651,65.757 C43.794,62.556 45.693,59.267 48.894,58.409 Z"/>
<path fill-rule="evenodd"  stroke-width="2px" stroke="rgb(63, 135, 211)" fill="rgb(255, 255, 255)"
 d="M48.000,42.000 L63.000,42.000 L63.000,68.000 L48.000,68.000 C40.820,68.000 35.000,62.180 35.000,55.000 C35.000,47.820 40.820,42.000 48.000,42.000 Z"/>
<path fill-rule="evenodd"  stroke-width="2px" stroke="rgb(63, 135, 211)" fill-opacity="0" fill="rgb(255, 0, 0)"
 d="M75.000,46.000 C79.970,46.000 84.000,50.029 84.000,55.000 C84.000,59.970 79.970,64.000 75.000,64.000 C70.029,64.000 66.000,59.970 66.000,55.000 C66.000,50.029 70.029,46.000 75.000,46.000 Z"/>
<path fill-rule="evenodd"  stroke-width="2px" stroke="rgb(63, 135, 211)" fill="rgb(255, 255, 255)"
 d="M67.000,39.000 L76.000,39.000 L76.000,71.000 L67.000,71.000 C63.686,71.000 61.000,68.314 61.000,65.000 L61.000,45.000 C61.000,41.686 63.686,39.000 67.000,39.000 Z"/>
</svg>